<?xml version="1.0" encoding="UTF-8" standalone="no"?>
<!-- Created with Inkscape (http://www.inkscape.org/) -->

<svg
   xmlns:dc="http://purl.org/dc/elements/1.1/"
   xmlns:cc="http://creativecommons.org/ns#"
   xmlns:rdf="http://www.w3.org/1999/02/22-rdf-syntax-ns#"
   xmlns:svg="http://www.w3.org/2000/svg"
   xmlns="http://www.w3.org/2000/svg"
   xmlns:sodipodi="http://sodipodi.sourceforge.net/DTD/sodipodi-0.dtd"
   xmlns:inkscape="http://www.inkscape.org/namespaces/inkscape"
   version="1.0"
   width="331.89948"
   height="288.04874"
   id="svg1415"
   sodipodi:docname="fig1.svg"
   inkscape:version="0.92.3 (2405546, 2018-03-11)">
  <metadata
     id="metadata52">
    <rdf:RDF>
      <cc:Work
         rdf:about="">
        <dc:format>image/svg+xml</dc:format>
        <dc:type
           rdf:resource="http://purl.org/dc/dcmitype/StillImage" />
        <dc:title></dc:title>
      </cc:Work>
    </rdf:RDF>
  </metadata>
  <sodipodi:namedview
     pagecolor="#ffffff"
     bordercolor="#666666"
     borderopacity="1"
     objecttolerance="10"
     gridtolerance="10"
     guidetolerance="10"
     inkscape:pageopacity="0"
     inkscape:pageshadow="2"
     inkscape:window-width="1920"
     inkscape:window-height="1057"
     id="namedview50"
     showgrid="false"
     inkscape:zoom="8.0000004"
     inkscape:cx="210.36681"
     inkscape:cy="119.90169"
     inkscape:window-x="-8"
     inkscape:window-y="-8"
     inkscape:window-maximized="1"
     inkscape:current-layer="g1590"
     fit-margin-top="10"
     fit-margin-left="10"
     fit-margin-right="10"
     fit-margin-bottom="10"
     showguides="false"
     units="px" />
  <defs
     id="defs1417" />
  <g
     id="layer1"
     transform="translate(3.0196965,-47.140216)">
    <g
       transform="translate(-281.20724,23.299671)"
       id="g1590">
      <line
         style="fill:none;stroke:#000000;stroke-width:0.72770786;stroke-linecap:square;stroke-miterlimit:10"
         id="line5"
         y2="38.601231"
         x2="311.74484"
         y1="286.73334"
         x1="311.74484"
         stroke-miterlimit="10" />
      <text
         x="337.86246"
         y="281.71027"
         style="font-size:10.46080017px;font-family:ArialMT"
         id="text7">1</text>
      <line
         style="fill:none;stroke:#000000;stroke-width:0.72770786;stroke-linecap:square;stroke-miterlimit:10"
         id="line9"
         y2="38.601231"
         x2="336.54984"
         y1="286.73334"
         x1="336.54984"
         stroke-miterlimit="10" />
      <text
         x="362.66525"
         y="281.96027"
         style="font-size:10.46080017px;font-family:ArialMT"
         id="text11">2</text>
      <line
         style="fill:none;stroke:#000000;stroke-width:0.72770786;stroke-linecap:square;stroke-miterlimit:10"
         id="line13"
         y2="38.601231"
         x2="361.35184"
         y1="286.73334"
         x1="361.35184"
         stroke-miterlimit="10" />
      <line
         style="fill:none;stroke:#000000;stroke-width:0.72770786;stroke-linecap:square;stroke-miterlimit:10"
         id="line17"
         y2="38.601231"
         x2="386.15585"
         y1="286.73334"
         x1="386.15585"
         stroke-miterlimit="10" />
      <line
         style="fill:none;stroke:#000000;stroke-width:0.72770786;stroke-linecap:square;stroke-miterlimit:10"
         id="line21"
         y2="38.601231"
         x2="410.95786"
         y1="286.73334"
         x1="410.95786"
         stroke-miterlimit="10" />
      <line
         style="fill:none;stroke:#000000;stroke-width:0.72770786;stroke-linecap:square;stroke-miterlimit:10"
         id="line25"
         y2="38.601231"
         x2="435.76285"
         y1="286.73334"
         x1="435.76285"
         stroke-miterlimit="10" />
      <line
         style="fill:none;stroke:#000000;stroke-width:0.72770786;stroke-linecap:square;stroke-miterlimit:10"
         id="line29"
         y2="38.601231"
         x2="485.36783"
         y1="286.73334"
         x1="485.36783"
         stroke-miterlimit="10" />
      <line
         style="fill:none;stroke:#000000;stroke-width:0.72770786;stroke-linecap:square;stroke-miterlimit:10"
         id="line33"
         y2="38.601231"
         x2="510.17084"
         y1="286.73334"
         x1="510.17084"
         stroke-miterlimit="10" />
      <line
         style="fill:none;stroke:#000000;stroke-width:0.72770786;stroke-linecap:square;stroke-miterlimit:10"
         id="line37"
         y2="38.601231"
         x2="534.97284"
         y1="286.73334"
         x1="534.97284"
         stroke-miterlimit="10" />
      <line
         style="fill:none;stroke:#000000;stroke-width:0.72755569;stroke-linecap:square;stroke-miterlimit:10"
         id="line41"
         y2="38.634792"
         x2="559.77887"
         y1="286.66318"
         x1="559.77887"
         stroke-miterlimit="10" />
      <text
         x="316.85123"
         y="281.35287"
         style="font-size:10.46080017px;font-family:ArialMT"
         id="text51">0</text>
      <line
         stroke-miterlimit="10"
         x1="461.36783"
         y1="286.73334"
         x2="461.36783"
         y2="38.601231"
         id="line56"
         style="fill:none;stroke:#000000;stroke-width:0.72770786;stroke-linecap:square;stroke-miterlimit:10" />
      <line
         style="fill:none;stroke:#000000;stroke-width:0.72765565;stroke-linecap:square;stroke-miterlimit:10"
         id="line53"
         y2="286.66559"
         x2="559.776"
         y1="286.66559"
         x1="311.67706"
         stroke-miterlimit="10" />
      <text
         x="314.35123"
         y="258.55069"
         style="font-size:10.46080017px;font-family:ArialMT"
         id="text55">1</text>
      <line
         style="fill:none;stroke:#000000;stroke-width:0.72771883;stroke-linecap:square;stroke-miterlimit:10"
         id="line57"
         y2="261.86359"
         x2="559.81921"
         y1="261.86359"
         x1="311.67712"
         stroke-miterlimit="10" />
      <text
         x="314.60123"
         y="233.74738"
         style="font-size:10.46080017px;font-family:ArialMT"
         id="text59">2</text>
      <line
         style="fill:none;stroke:#000000;stroke-width:0.72771883;stroke-linecap:square;stroke-miterlimit:10"
         id="line61"
         y2="237.05957"
         x2="559.81921"
         y1="237.05957"
         x1="311.67712"
         stroke-miterlimit="10" />
      <line
         style="fill:none;stroke:#000000;stroke-width:0.72771883;stroke-linecap:square;stroke-miterlimit:10"
         id="line65"
         y2="212.25757"
         x2="559.81921"
         y1="212.25757"
         x1="311.67712"
         stroke-miterlimit="10" />
      <line
         style="fill:none;stroke:#000000;stroke-width:0.72771883;stroke-linecap:square;stroke-miterlimit:10"
         id="line69"
         y2="187.45357"
         x2="559.81921"
         y1="187.45357"
         x1="311.67712"
         stroke-miterlimit="10" />
      <line
         style="fill:none;stroke:#000000;stroke-width:0.72771883;stroke-linecap:square;stroke-miterlimit:10"
         id="line71"
         y2="162.64957"
         x2="559.81921"
         y1="162.64957"
         x1="311.67712"
         stroke-miterlimit="10" />
      <line
         style="fill:none;stroke:#000000;stroke-width:0.72771883;stroke-linecap:square;stroke-miterlimit:10"
         id="line75"
         y2="113.04558"
         x2="559.81921"
         y1="113.04558"
         x1="311.67712"
         stroke-miterlimit="10" />
      <line
         style="fill:none;stroke:#000000;stroke-width:0.72771883;stroke-linecap:square;stroke-miterlimit:10"
         id="line79"
         y2="88.241577"
         x2="559.81921"
         y1="88.241577"
         x1="311.67712"
         stroke-miterlimit="10" />
      <circle
         style="fill:none;stroke:#000000;stroke-opacity:1"
         id="path65"
         cy="162.73929"
         cx="435.73782"
         r="112" />
      <line
         style="fill:none;stroke:#000000;stroke-width:0.72771883;stroke-linecap:square;stroke-miterlimit:10"
         id="line83"
         y2="63.43758"
         x2="559.81921"
         y1="63.43758"
         x1="311.67712"
         stroke-miterlimit="10" />
      <line
         style="fill:none;stroke:#000000;stroke-width:0.72766924;stroke-linecap:square;stroke-miterlimit:10"
         id="line87"
         y2="38.635578"
         x2="559.78534"
         y1="38.635578"
         x1="311.67706"
         stroke-miterlimit="10" />
      <g
         id="g94"
         transform="translate(0.35355338,7.1161165)">
        <rect
           y="26.724428"
           x="317.48724"
           height="9.3691645"
           width="35.178562"
           id="rect90"
           style="fill:#ffffff" />
        <text
           id="text93"
           style="font-size:10.46080017px;font-family:ArialMT"
           y="35.211777"
           x="318.33313">32767</text>
      </g>
      <polyline
         id="polyline99"
         points="287.052,178.175 298.037,174.253 287.052,170.331 291.445,174.253 "
         transform="matrix(0.99751081,0,0,1,262.84258,112.39457)" />
      <polyline
         id="polyline103"
         points="153.141,36.417 149.219,25.435 145.295,36.417 149.219,32.025 "
         transform="translate(162.49574,12.843282)" />
      <rect
         id="rect78"
         width="62.429142"
         height="20.364065"
         x="315.24115"
         y="115.8106"
         style="fill:#ffffff;stroke-width:1.68005216" />
      <text
         x="348.24463"
         y="130.66977"
         style="font-size:20.92140007px;font-family:ArialMT;text-align:center;text-anchor:middle"
         id="text105">y-axis (lng)</text>
      <line
         style="fill:none;stroke:#000000;stroke-width:1.85048175;stroke-miterlimit:10"
         id="line109"
         y2="286.64755"
         x2="556.81909"
         y1="286.64755"
         x1="313.3046"
         stroke-miterlimit="10" />
      <line
         style="fill:none;stroke:#000000;stroke-width:1.83176827;stroke-miterlimit:10"
         id="line111"
         y2="43.961418"
         x2="311.66547"
         y1="282.57556"
         x1="311.66547"
         stroke-miterlimit="10" />
      <line
         stroke-miterlimit="10"
         x1="311.67712"
         y1="137.04558"
         x2="559.81921"
         y2="137.04558"
         id="line54"
         style="fill:none;stroke:#000000;stroke-width:0.72771883;stroke-linecap:square;stroke-miterlimit:10" />
      <rect
         style="fill:#ffffff;stroke-width:1.59701419"
         y="266.36893"
         x="414.84378"
         height="17.672123"
         width="65.003258"
         id="rect72" />
      <g
         id="g75">
        <text
           id="text107"
           style="font-size:20.92140007px;font-family:ArialMT;text-align:center;text-anchor:middle"
           y="282.20319"
           x="445.85748">x-axis (lat)</text>
      </g>
      <circle
         id="path51"
         cx="435.49844"
         cy="162.55536"
         r="4.8688498" />
      <circle
         r="4.8688498"
         cy="187.41824"
         cx="485.33057"
         id="circle52" />
      <text
         xml:space="preserve"
         style="font-style:normal;font-weight:normal;font-size:40px;line-height:1.25;font-family:sans-serif;letter-spacing:0px;word-spacing:0px;fill:#000000;fill-opacity:1;stroke:none"
         x="438.09845"
         y="175.59731"
         id="text56"><tspan
           sodipodi:role="line"
           id="tspan54"
           x="438.09845"
           y="175.59731"
           style="font-size:13.33333302px">C</tspan></text>
      <text
         xml:space="preserve"
         style="font-style:normal;font-weight:normal;font-size:40px;line-height:1.25;font-family:sans-serif;letter-spacing:0px;word-spacing:0px;fill:#000000;fill-opacity:1;stroke:none"
         x="489.70856"
         y="204.92885"
         id="text60"><tspan
           sodipodi:role="line"
           id="tspan58"
           x="489.70856"
           y="204.92885"
           style="font-size:16px">P'</tspan></text>
      <rect
         style="fill:#ffffff;stroke-width:1.03604007"
         id="rect74"
         width="35.178562"
         height="10.056664"
         x="541.48724"
         y="272.53693" />
      <text
         id="text72"
         style="font-size:10.46080017px;font-family:ArialMT"
         y="281.21027"
         x="543.13885">32767</text>
      <g
         aria-label="∆"
         style="font-style:normal;font-weight:normal;font-size:13.33333302px;line-height:1.25;font-family:sans-serif;letter-spacing:0px;word-spacing:0px;fill:#000000;fill-opacity:1;stroke:none"
         id="text73"
         transform="translate(26.125,1.8749999)">
        <path
           d="m 399.39979,226.88928 h -9.03646 l 3.65886,-9.69401 h 1.71875 z m -1.73828,-1.09375 -2.8125,-7.46745 -2.80599,7.46745 z"
           id="path113"
           inkscape:connector-curvature="0" />
      </g>
      <path
         inkscape:connector-curvature="0"
         id="path94"
         d="m 421.41701,213.2428 36.25,11.25 -36.25,11.5"
         style="fill:none;stroke:#000000;stroke-width:1px;stroke-linecap:butt;stroke-linejoin:miter;stroke-opacity:1"
         sodipodi:nodetypes="ccc" />
      <circle
         id="circle66"
         cx="476.51807"
         cy="177.98074"
         r="4.8688498" />
      <text
         id="text70"
         y="175.96545"
         x="466.23004"
         style="font-style:normal;font-weight:normal;font-size:40px;line-height:1.25;font-family:sans-serif;letter-spacing:0px;word-spacing:0px;fill:#000000;fill-opacity:1;stroke:none"
         xml:space="preserve"><tspan
           style="font-size:16px"
           y="175.96545"
           x="466.23004"
           id="tspan68"
           sodipodi:role="line">P</tspan></text>
      <text
         id="text71"
         y="301.7135"
         x="293.28912"
         style="font-style:normal;font-weight:normal;font-size:40px;line-height:1.25;font-family:sans-serif;letter-spacing:0px;word-spacing:0px;fill:#000000;fill-opacity:1;stroke:none"
         xml:space="preserve"><tspan
           style="font-size:13.33333302px"
           y="301.7135"
           x="293.28912"
           id="tspan69"
           sodipodi:role="line">C<tspan
   style="font-size:64.99999762%;baseline-shift:super"
   id="tspan73" /></tspan></text>
      <circle
         r="4.8688498"
         cy="285.30536"
         cx="312.49844"
         id="circle72" />
      <text
         xml:space="preserve"
         style="font-style:normal;font-weight:normal;font-size:10.70029068px;line-height:1.25;font-family:sans-serif;letter-spacing:0px;word-spacing:0px;fill:#000000;fill-opacity:1;stroke:none;stroke-width:0.26750728"
         x="302.30429"
         y="296.14343"
         id="text83"><tspan
           sodipodi:role="line"
           id="tspan81"
           x="302.30429"
           y="296.14343"
           style="stroke-width:0.26750728">'</tspan></text>
      <text
         xml:space="preserve"
         style="font-style:normal;font-weight:normal;font-size:40px;line-height:1.25;font-family:sans-serif;letter-spacing:0px;word-spacing:0px;fill:#000000;fill-opacity:1;stroke:none"
         x="489.23724"
         y="84.345512"
         id="text79"><tspan
           sodipodi:role="line"
           id="tspan77"
           x="489.23724"
           y="84.345512"
           style="font-size:16px">S</tspan></text>
      <line
         stroke-miterlimit="10"
         x1="311.66547"
         y1="282.57556"
         x2="311.66547"
         y2="43.961418"
         id="line104"
         style="fill:none;stroke:#000000;stroke-width:1.83176827;stroke-miterlimit:10" />
      <text
         id="text81"
         y="52.908012"
         x="545.79974"
         style="font-style:normal;font-weight:normal;font-size:40px;line-height:1.25;font-family:sans-serif;letter-spacing:0px;word-spacing:0px;fill:#000000;fill-opacity:1;stroke:none"
         xml:space="preserve"><tspan
           style="font-size:16px"
           y="52.908012"
           x="545.79974"
           id="tspan79"
           sodipodi:role="line">G</tspan></text>
      <polyline
         transform="translate(261.74444,186.95074)"
         points="153.141,36.417 149.219,25.435 145.295,36.417 149.219,32.025 "
         id="polyline83" />
      <polyline
         id="polyline85"
         points="153.141,36.417 149.219,25.435 145.295,36.417 149.219,32.025 "
         transform="matrix(1,0,0,-1,261.74444,262.80274)" />
      <polyline
         id="polyline90"
         points="153.141,36.417 149.219,25.435 145.295,36.417 149.219,32.025 "
         transform="translate(154.81645,120.95074)" />
      <polyline
         transform="matrix(1,0,0,-1,154.81645,206.80274)"
         points="153.141,36.417 149.219,25.435 145.295,36.417 149.219,32.025 "
         id="polyline92" />
      <text
         xml:space="preserve"
         style="font-style:normal;font-weight:normal;font-size:40px;line-height:1.25;font-family:sans-serif;letter-spacing:0px;word-spacing:0px;fill:#000000;fill-opacity:1;stroke:none"
         x="299.36194"
         y="169.49736"
         id="text96"><tspan
           sodipodi:role="line"
           id="tspan94"
           x="299.36194"
           y="169.49736">D</tspan></text>
      <polyline
         transform="translate(417.43775,119.57574)"
         points="153.141,36.417 149.219,25.435 145.295,36.417 149.219,32.025 "
         id="polyline88" />
      <polyline
         id="polyline91"
         points="153.141,36.417 149.219,25.435 145.295,36.417 149.219,32.025 "
         transform="matrix(1,0,0,-1,417.43775,206.01704)" />
      <g
         aria-label="Θ"
         style="font-style:normal;font-weight:normal;font-size:19.47572517px;line-height:1.25;font-family:sans-serif;letter-spacing:0px;word-spacing:0px;fill:#000000;fill-opacity:1;stroke:none;stroke-width:0.48689315"
         id="text102"
         transform="matrix(0.70669657,0,0,0.70669657,164.70851,47.648566)">
        <path
           d="m 562.56209,162.96107 q 0,-3.48053 1.8734,-5.43951 1.8734,-1.95898 4.80237,-1.95898 2.93847,0 4.79285,1.99702 1.86389,1.98751 1.86389,5.23981 0,3.23327 -1.8734,5.21127 -1.8734,1.97801 -4.79285,1.97801 -2.10163,0 -3.68974,-1.04606 -1.5786,-1.05557 -2.28231,-2.70074 -0.69421,-1.65467 -0.69421,-3.28082 z m 1.90193,0.0285 q 0,2.38692 1.29331,3.90846 1.29331,1.51203 3.46151,1.51203 2.13015,0 3.45199,-1.49301 1.32184,-1.50253 1.32184,-4.12718 0,-2.6627 -1.33135,-4.1462 -1.33135,-1.49302 -3.41395,-1.49302 -2.04458,0 -3.41396,1.39792 -1.36939,1.39792 -1.36939,4.441 z m 2.00653,0.60861 v -1.63565 h 5.51559 v 1.63565 z"
           style="font-style:normal;font-variant:normal;font-weight:normal;font-stretch:normal;font-family:Arial;-inkscape-font-specification:Arial;stroke-width:0.48689315"
           id="path125"
           inkscape:connector-curvature="0" />
      </g>
      <g
         aria-label="θ"
         style="font-style:normal;font-weight:normal;font-size:6.69335604px;line-height:1.25;font-family:sans-serif;letter-spacing:0px;word-spacing:0px;fill:#000000;fill-opacity:1;stroke:none;stroke-width:0.1673339"
         id="text120"
         transform="matrix(1.5302032,0,0,1.5302032,-259.83934,-122.59287)">
        <path
           d="m 476.16218,226.71729 q 0,0.75788 -0.0918,1.26447 -0.0918,0.5026 -0.23535,0.83766 -0.23136,0.53849 -0.65018,0.81373 -0.41884,0.27124 -1.02514,0.27124 -0.60631,0 -1.02515,-0.27124 -0.41882,-0.27524 -0.65018,-0.81373 -0.14759,-0.33506 -0.23934,-0.83766 -0.0878,-0.50659 -0.0878,-1.26447 0,-0.69407 0.0878,-1.2166 0.0918,-0.52654 0.24333,-0.85762 0.22737,-0.51855 0.64619,-0.79379 0.42283,-0.27522 1.02515,-0.27522 0.60231,0 1.02115,0.27522 0.42281,0.27524 0.65018,0.79379 0.1476,0.33507 0.23934,0.85762 0.0918,0.52253 0.0918,1.2166 z m -0.7539,-0.359 q -0.016,-0.57041 -0.1157,-0.99722 -0.0957,-0.4268 -0.22338,-0.64221 -0.16354,-0.27922 -0.37894,-0.39091 -0.2154,-0.1157 -0.53052,-0.1157 -0.31512,0 -0.53053,0.1157 -0.21539,0.11167 -0.37893,0.39091 -0.13563,0.21938 -0.23136,0.64619 -0.0918,0.42283 -0.10765,0.99324 z m 0,0.6422 h -2.49703 q 0,0.56642 0.0918,1.03313 0.0918,0.4627 0.23535,0.71001 0.15955,0.27523 0.38293,0.39889 0.22337,0.12365 0.53849,0.12365 0.31512,0 0.5385,-0.12365 0.22337,-0.12366 0.38293,-0.39889 0.1436,-0.24731 0.23534,-0.71001 0.0918,-0.46671 0.0918,-1.03313 z"
           style="stroke-width:0.20423017"
           id="path122"
           inkscape:connector-curvature="0" />
      </g>
      <rect
         style="fill:none;fill-opacity:1;stroke:#000000;stroke-width:0.49700001;stroke-linecap:round;stroke-miterlimit:4;stroke-dasharray:0.49700001, 1.98800004;stroke-dashoffset:0;stroke-opacity:1"
         id="rect890"
         width="24.249998"
         height="24.749998"
         x="473.08395"
         y="174.81606" />
      <text
         xml:space="preserve"
         style="font-style:normal;font-weight:normal;font-size:40px;line-height:1.25;font-family:sans-serif;text-align:start;letter-spacing:0px;word-spacing:0px;text-anchor:start;fill:#000000;fill-opacity:1;stroke:none"
         x="497.83881"
         y="175.17137"
         id="text894"><tspan
           sodipodi:role="line"
           id="tspan892"
           x="497.83881"
           y="175.17137"
           style="font-size:14.66666698px">R</tspan></text>
    </g>
  </g>
</svg>
